<?xml version="1.0" encoding="utf-8"?>
<!-- Generator: Adobe Illustrator 16.0.0, SVG Export Plug-In . SVG Version: 6.00 Build 0)  -->
<!DOCTYPE svg PUBLIC "-//W3C//DTD SVG 1.0//EN" "http://www.w3.org/TR/2001/REC-SVG-20010904/DTD/svg10.dtd">
<svg version="1.0" id="Layer_1" xmlns="http://www.w3.org/2000/svg" xmlns:xlink="http://www.w3.org/1999/xlink" x="0px" y="0px"
	 width="100px" height="100px" viewBox="0 0 100 100" enable-background="new 0 0 100 100" xml:space="preserve">
<path d="M70,56.666c1.999,0,3.877,0.778,5.29,2.188L80,54.137C77.239,51.38,73.62,50,70,50h-3.333c-22.093,0-40-17.91-40-40H20
	v26.666C20,46.712,27.411,55,37.059,56.426L23.333,87.887L27.865,90l4.671-10.014L50,71.839l17.468,8.147L72.136,90l4.531-2.113
	l-13.62-31.221H70z M34.727,75.286l4.049-8.685L46.061,70L34.727,75.286z M53.945,70l7.278-3.396l4.05,8.682L53.945,70z
	 M59.817,63.584L50,68.16l-9.814-4.58l3.224-6.914h13.179L59.817,63.584z"/>
</svg>
